<svg width="22" height="22" viewBox="0 0 22 22" fill="none" xmlns="http://www.w3.org/2000/svg">
<path d="M11 21.5C9.5549 21.5 8.19378 21.2239 6.91667 20.6717C5.63956 20.1187 4.52734 19.3681 3.58001 18.42C2.63267 17.4719 1.88212 16.3597 1.32834 15.0833C0.774562 13.807 0.498451 12.4459 0.500007 11C0.500007 9.55022 0.776118 8.18794 1.32834 6.91317C1.88134 5.63761 2.6319 4.52656 3.58001 3.58C4.52812 2.63344 5.64034 1.88289 6.91667 1.32833C8.19378 0.776111 9.5549 0.5 11 0.5C12.4498 0.5 13.8121 0.776111 15.0868 1.32833C16.3624 1.88133 17.4738 2.63189 18.4212 3.58C19.3685 4.52811 20.1187 5.63917 20.6717 6.91317C21.2239 8.18872 21.5 9.551 21.5 11C21.5 12.4451 21.2239 13.8062 20.6717 15.0833C20.1187 16.3604 19.3681 17.4727 18.42 18.42C17.4719 19.3673 16.3608 20.1179 15.0868 20.6717C13.8128 21.2254 12.4506 21.5016 11 21.5ZM11 20.3427C11.6845 19.463 12.2491 18.5993 12.694 17.7515C13.1381 16.9037 13.4994 15.9548 13.7778 14.9048H8.22217C8.53095 16.0139 8.89962 16.9924 9.32817 17.8402C9.75751 18.6879 10.3148 19.5221 11 20.3427ZM9.51484 20.1677C8.9704 19.526 8.4734 18.7327 8.02384 17.7877C7.57428 16.8434 7.23984 15.8821 7.02051 14.9037H2.54634C3.21523 16.3542 4.16295 17.5442 5.38951 18.4737C6.61684 19.4023 7.99195 19.967 9.51484 20.1677ZM12.4852 20.1677C14.0081 19.967 15.3832 19.4023 16.6105 18.4737C17.8371 17.5442 18.7848 16.3542 19.4537 14.9037H14.9807C14.6851 15.8969 14.313 16.8656 13.8642 17.8098C13.4146 18.7548 12.955 19.5416 12.4852 20.1677ZM2.07034 13.7382H6.77784C6.68917 13.2591 6.62695 12.7924 6.59117 12.3382C6.55384 11.8847 6.53517 11.4387 6.53517 11C6.53517 10.5613 6.55345 10.1153 6.59001 9.66183C6.62656 9.20839 6.68878 8.74172 6.77667 8.26183H2.07151C1.94473 8.66628 1.84556 9.10689 1.77401 9.58367C1.70245 10.0597 1.66667 10.5318 1.66667 11C1.66667 11.4682 1.70206 11.9407 1.77284 12.4175C1.84362 12.8943 1.94278 13.3341 2.07034 13.737M7.94451 13.737H14.0555C14.1442 13.2587 14.2064 12.7998 14.2422 12.3603C14.2795 11.9217 14.2982 11.4682 14.2982 11C14.2982 10.5318 14.2799 10.0783 14.2433 9.63967C14.2068 9.201 14.1446 8.74211 14.0567 8.263H7.94334C7.85545 8.74133 7.79323 9.20022 7.75667 9.63967C7.72012 10.0783 7.70184 10.5318 7.70184 11C7.70184 11.4682 7.72012 11.9217 7.75667 12.3603C7.79323 12.799 7.85662 13.2579 7.94451 13.737ZM15.2233 13.737H19.9297C20.0564 13.3333 20.1556 12.8935 20.2272 12.4175C20.298 11.9407 20.3333 11.4682 20.3333 11C20.3333 10.5318 20.298 10.0593 20.2272 9.5825C20.1564 9.10572 20.0572 8.66589 19.9297 8.263H15.2222C15.3108 8.74133 15.3731 9.20761 15.4088 9.66183C15.4462 10.1161 15.4648 10.5621 15.4648 11C15.4648 11.4379 15.4466 11.8839 15.41 12.3382C15.3735 12.7924 15.3112 13.2591 15.2233 13.7382M14.9807 7.09633L19.4537 7.09633C18.77 5.61545 17.8336 4.42544 16.6443 3.52633C15.4551 2.62722 14.0687 2.05517 12.4852 1.81017C13.0296 2.5265 13.5192 3.34589 13.954 4.26833C14.3888 5.19 14.731 6.13267 14.9807 7.09633ZM8.22217 7.09633H13.7778C13.4698 6.00122 13.0899 5.01111 12.638 4.126C12.1861 3.24089 11.6401 2.418 11 1.65733C10.3599 2.41722 9.8139 3.24011 9.36201 4.126C8.91012 5.01189 8.5294 6.002 8.22217 7.09633ZM2.54751 7.09633H7.02051C7.27017 6.13345 7.6124 5.19078 8.04717 4.26833C8.48195 3.34589 8.97156 2.5265 9.51601 1.81017C7.91845 2.05594 6.52856 2.6315 5.34634 3.53683C4.16412 4.44372 3.23078 5.62983 2.54634 7.09517" fill="#0512F5"/>
</svg>
